<svg width="33" height="24" viewBox="0 0 33 24" fill="none" xmlns="http://www.w3.org/2000/svg">
<g opacity="0.5">
<path d="M31.7137 1.99363C30.5226 0.577606 28.3233 0 24.1231 0H8.87657C4.58029 0 2.34375 0.614865 1.15702 2.12243C0 3.59232 0 5.75807 0 8.75554V14.4687C0 20.2757 1.3728 23.2241 8.87657 23.2241H24.1232C27.7656 23.2241 29.7839 22.7144 31.0896 21.4648C32.4287 20.1833 33 18.091 33 14.4687V8.75554C33 5.59446 32.9105 3.41593 31.7137 1.99363ZM21.1861 12.4009L14.2627 16.0193C14.1079 16.1002 13.9387 16.1403 13.7696 16.1403C13.5782 16.1403 13.3872 16.0888 13.2181 15.9864C12.8996 15.7934 12.7051 15.4481 12.7051 15.0758V7.8622C12.7051 7.49047 12.8991 7.14556 13.2169 6.95246C13.5349 6.75936 13.9304 6.74616 14.2603 6.91754L21.1837 10.5126C21.5359 10.6955 21.7571 11.0592 21.7576 11.4559C21.7581 11.853 21.5378 12.2171 21.1861 12.4009Z" fill="#F6FCFA"/>
</g>
</svg>
